<?xml version="1.0" encoding="UTF-8"?>
<svg id="Camada_1" data-name="Camada 1" xmlns="http://www.w3.org/2000/svg" xmlns:xlink="http://www.w3.org/1999/xlink" viewBox="0 0 578.26 578.26">
  <defs>
    <style>
      .cls-1 {
        fill: url(#Gradiente_sem_nome_314);
      }

      .cls-2 {
        fill: #fff;
      }

      .cls-3 {
        fill: #cddb00;
      }
    </style>
    <linearGradient id="Gradiente_sem_nome_314" data-name="Gradiente sem nome 314" x1="289.13" y1="578.26" x2="289.13" y2="0" gradientUnits="userSpaceOnUse">
      <stop offset="0" stop-color="#EB5727"/>
      <stop offset="1" stop-color="#F2C029"/>
    </linearGradient>
  </defs>
  <rect class="cls-1" width="578.26" height="578.26" rx="73.56" ry="73.56"/>
  <g>
    <path class="cls-2" d="M155.28,513.65c-3.94,0-7.25-.62-9.93-1.85-2.68-1.23-4.71-2.92-6.08-5.06-1.37-2.14-2.05-4.6-2.05-7.38h10.42c0,1,.28,1.92.84,2.75.56.83,1.4,1.48,2.52,1.94,1.12.46,2.55.69,4.28.69,1.5,0,2.79-.19,3.85-.58,1.06-.39,1.87-.93,2.43-1.62.56-.69.84-1.52.84-2.49,0-1.23-.52-2.19-1.56-2.86-1.04-.67-2.8-1.11-5.27-1.3l-2.72-.23c-4.36-.39-7.83-1.76-10.42-4.11-2.58-2.35-3.88-5.48-3.88-9.38,0-2.78.65-5.15,1.94-7.12,1.29-1.97,3.12-3.47,5.47-4.51,2.35-1.04,5.13-1.56,8.33-1.56,3.47,0,6.42.58,8.83,1.74,2.41,1.16,4.25,2.79,5.53,4.89,1.27,2.1,1.91,4.54,1.91,7.32h-10.42c0-.93-.23-1.77-.69-2.55-.46-.77-1.13-1.38-2-1.82-.87-.44-1.92-.67-3.15-.67-1.16,0-2.13.18-2.92.55-.79.37-1.39.88-1.79,1.53-.41.66-.61,1.39-.61,2.2,0,1.08.37,2.01,1.1,2.78.73.77,2.01,1.24,3.82,1.39l2.72.23c3.16.27,5.96.96,8.39,2.05,2.43,1.1,4.34,2.6,5.73,4.49,1.39,1.89,2.08,4.21,2.08,6.95s-.71,5.13-2.11,7.18c-1.41,2.05-3.42,3.63-6.02,4.75s-5.74,1.68-9.41,1.68Z"/>
    <path class="cls-2" d="M197.13,479.62v-9.38h33.92v9.38h-33.92ZM208.71,512.5v-34.03h10.77v34.03h-10.77Z"/>
    <path class="cls-2" d="M279.21,513.65c-3.86,0-7.22-.67-10.07-2-2.86-1.33-5.23-3.09-7.12-5.27-1.89-2.18-3.3-4.54-4.23-7.09-.93-2.55-1.39-5.02-1.39-7.41v-1.27c0-2.66.48-5.28,1.45-7.84.96-2.57,2.41-4.89,4.34-6.97,1.93-2.08,4.31-3.74,7.15-4.98,2.84-1.23,6.13-1.85,9.87-1.85s6.97.62,9.81,1.85c2.84,1.24,5.22,2.89,7.15,4.98,1.93,2.08,3.39,4.41,4.37,6.97.98,2.57,1.48,5.18,1.48,7.84v1.27c0,2.39-.47,4.86-1.42,7.41-.95,2.55-2.36,4.91-4.25,7.09-1.89,2.18-4.26,3.94-7.12,5.27-2.86,1.33-6.19,2-10.01,2ZM279.21,503.58c1.85,0,3.51-.31,4.98-.93,1.47-.62,2.72-1.49,3.76-2.6,1.04-1.12,1.83-2.42,2.37-3.91.54-1.49.81-3.1.81-4.83,0-1.85-.28-3.53-.84-5.04-.56-1.5-1.36-2.8-2.4-3.88-1.04-1.08-2.3-1.91-3.76-2.49-1.47-.58-3.11-.87-4.92-.87s-3.51.29-4.98.87c-1.47.58-2.72,1.41-3.76,2.49-1.04,1.08-1.83,2.37-2.37,3.88-.54,1.5-.81,3.18-.81,5.04,0,1.74.27,3.35.81,4.83.54,1.49,1.33,2.79,2.37,3.91,1.04,1.12,2.3,1.99,3.76,2.6,1.47.62,3.12.93,4.98.93Z"/>
    <path class="cls-2" d="M351.39,513.65c-3.82,0-7.1-.67-9.84-2-2.74-1.33-5-3.09-6.77-5.27-1.78-2.18-3.09-4.54-3.94-7.09s-1.27-5.02-1.27-7.41v-1.27c0-2.66.43-5.28,1.3-7.84.87-2.57,2.2-4.89,3.99-6.97,1.79-2.08,4.04-3.74,6.74-4.98,2.7-1.23,5.87-1.85,9.49-1.85,3.86,0,7.28.72,10.27,2.17,2.99,1.45,5.39,3.47,7.21,6.08,1.81,2.6,2.87,5.62,3.18,9.06h-10.77c-.27-1.47-.85-2.74-1.74-3.82-.89-1.08-2.03-1.92-3.42-2.52-1.39-.6-2.97-.9-4.75-.9-1.66,0-3.15.29-4.49.87-1.33.58-2.45,1.4-3.36,2.46-.91,1.06-1.6,2.34-2.08,3.85s-.72,3.2-.72,5.09.24,3.59.72,5.09,1.2,2.8,2.14,3.88c.95,1.08,2.09,1.9,3.44,2.46,1.35.56,2.89.84,4.63.84,2.7,0,4.99-.66,6.86-1.97,1.87-1.31,3-3.07,3.39-5.27h10.77c-.35,3.16-1.41,6.06-3.18,8.68-1.78,2.62-4.17,4.72-7.18,6.28-3.01,1.56-6.56,2.34-10.65,2.34Z"/>
    <path class="cls-2" d="M401.22,512.5v-42.25h10.77v42.25h-10.77ZM429.35,512.5l-13.72-19.74h-5.73l17.08-22.52h12.39l-15.28,20.14v-4.11l18.23,26.22h-12.97Z"/>
  </g>
  <path class="cls-3" d="M476.12,357.43v49.04h-62.68c12.23-3.28,24.09-10.3,33.99-20.39,14.14-14.4,30.71-41.32,29.41-87.81l-28.53.8c.8,28.44-6.75,52.24-21.25,67.01-8.66,8.82-19.67,14.02-29.3,13.94l-.25,26.44-52.05-.07c-21.49-1.35-38.56-19.23-38.56-41.06s18.47-41.16,41.16-41.16c13.28,0,25.82,6.47,33.54,17.29l23.24-16.58c-13.07-18.32-34.3-29.26-56.78-29.26-38.44,0-69.71,31.27-69.71,69.71,0,15.31,4.97,29.47,13.37,40.98-21.16-1.51-31.48-15.69-31.48-43.25v-31.26c0-19.96-16.24-36.21-36.21-36.21-14.96,0-28.57,9.4-33.86,23.39l-23.25,61.43-23.25-61.43c-5.3-13.99-18.9-23.39-33.86-23.39-19.96,0-36.21,16.24-36.21,36.21v103.21h28.54v-103.21c0-4.22,3.44-7.66,7.66-7.66,3.16,0,6.04,1.99,7.17,4.95l25.13,66.39c3.94,10.42,13.68,17.14,24.82,17.15h0c11.14,0,20.88-6.73,24.82-17.14l25.13-66.39c1.12-2.96,4-4.95,7.17-4.95,4.22,0,7.66,3.44,7.66,7.66v31.26c0,45.05,23.9,71.95,63.92,71.95h51.18c.42,0,.84.03,1.26.03v-.03h128.06v27.41h28.54v-104.99h-28.54Z"/>
</svg>